{"title":"The Game (1997) 720p BRRip HEVC x265 [Dual-Audio][English 5.1+Hi","uid":12052419,"size":1389133960,"categoryP":"video","categoryS":"movies","magnet":"?xt=urn:btih:cb478ab17b62ea7e5265639f9f2a5f813bc27cae&amp;dn=The+Game+%281997%29+720p+BRRip+HEVC+x265+%5BDual-Audio%5D%5BEnglish+5.1%2BHi&amp;tr=udp%3A%2F%2Ftracker.openbittorrent.com%3A80&amp;tr=udp%3A%2F%2Fopen.demonii.com%3A1337&amp;tr=udp%3A%2F%2Ftracker.coppersurfer.tk%3A6969&amp;tr=udp%3A%2F%2Fexodus.desync.com%3A6969","seeders":0,"leechers":5,"uploader":"praneet_gupta777","files":3,"time":1435042494,"description":"[center]\n[b][size=7]The Game (1997) 720p BRRip HEVC x265 [Dual-Audio][English 5.1+Hindi 2.0] [PKG][/size][/b]\n\n\n\n\n\n[img]http://s20.postimg.org/ufe6vvvjx/The_Game_1997_Wide_Screen_Front_Cover_50523.jpg[/img]\n\n\n[img]http://s20.postimg.org/w8h3k7gql/Untitled.png[/img]\n\n\n\n\n[img]http://img9.uploadhouse.com/fileuploads/15981/15981250a2a3770f9f004bcdf00afac92833ebdb.png[/img]\n\n\n[quote]\n\n\nGeneral\nUnique ID                   : 205740100229545338114111149664133503629 (0x9AC81A1B51449F5D84CF21E09A5CDA8D)\nComplete name               : G:The Game (1997) 720p BRRip HEVC x265 [Dual-Audio][English 5.1+Hindi 2.0] [PKG]The Game (1997) 720p BRRip HEVC x265 [Dual-Audio][English 5.1+Hindi 2.0] [PKG].mkv\nFormat                      : Matroska\nFormat version              : Version 2\nFile size                   : 1.29 GiB\nDuration                    : 2h 8mn\nOverall bit rate            : 1 431 Kbps\nEncoded date                : UTC 2015-05-03 16:03:52\nWriting application         : mkvmerge v7.7.0 ('Six Voices') 32bit built on Feb 28 2015 23:23:00\nWriting library             : libebml v1.3.1 + libmatroska v1.4.2\nDURATION                    : 02:08:48.352000000\nNUMBER_OF_FRAMES            : 241511\nNUMBER_OF_BYTES             : 123653632\n\nVideo\nID                          : 1\nFormat                      : HEVC\nFormat/Info                 : High Efficiency Video Coding\nCodec ID                    : V_MPEGH/ISO/HEVC\nDuration                    : 2h 8mn\nBit rate                    : 1 147 Kbps\nWidth                       : 1 280 pixels\nHeight                      : 536 pixels\nDisplay aspect ratio        : 2.40:1\nFrame rate mode             : Constant\nFrame rate                  : 23.976 fps\nBits/(Pixel*Frame)          : 0.070\nStream size                 : 1.03 GiB (80%)\nDefault                     : Yes\nForced                      : No\n\nAudio #1\nID                          : 2\nFormat                      : AC-3\nFormat/Info                 : Audio Coding 3\nMode extension              : CM (complete main)\nFormat settings, Endianness : Big\nCodec ID                    : A_AC3\nDuration                    : 2h 8mn\nBit rate mode               : Constant\nBit rate                    : 128 Kbps\nChannel(s)                  : 2 channels\nChannel positions           : Front: L R\nSampling rate               : 48.0 KHz\nBit depth                   : 16 bits\nCompression mode            : Lossy\nStream size                 : 118 MiB (9%)\nLanguage                    : Hindi\nDefault                     : Yes\nForced                      : No\n\nAudio #2\nID                          : 3\nFormat                      : AC-3\nFormat/Info                 : Audio Coding 3\nMode extension              : CM (complete main)\nFormat settings, Endianness : Big\nCodec ID                    : A_AC3\nDuration                    : 2h 8mn\nBit rate mode               : Constant\nBit rate                    : 128 Kbps\nChannel(s)                  : 6 channels\nChannel positions           : Front: L C R, Side: L R, LFE\nSampling rate               : 48.0 KHz\nBit depth                   : 16 bits\nCompression mode            : Lossy\nStream size                 : 118 MiB (9%)\nLanguage                    : English\nDefault                     : No\nForced                      : No\n\n\n[color=navy][size=6][b]SAMPLE WITHIN TORRENT[/b][/size][/color]\n\n\n\n\n\n[img]http://icons.iconarchive.com/icons/tribalmarkings/colorflow/256/screenshots-icon.png[/img]\n\n\n\n\n\n[img]http://s20.postimg.org/fai2yd7ct/vlcsnap_2015_05_18_11h47m54s192.png[/img]\n\n\n[img]http://s20.postimg.org/wqc9026bh/vlcsnap_2015_05_18_11h48m58s62.png[/img]\n\n\n[img]http://s20.postimg.org/z8xy0qs1p/vlcsnap_2015_05_18_11h49m04s131.png[/img]\n\n\n[img]http://s20.postimg.org/em98ff8n1/vlcsnap_2015_05_18_11h49m10s183.png[/img]\n\n\n[img]http://s20.postimg.org/cya30rurh/vlcsnap_2015_05_18_11h51m54s39.png[/img]\n\n\n[img]http://s20.postimg.org/nmdtzm4ql/vlcsnap_2015_05_18_11h53m47s148.png[/img]\n\n\n[img]http://s20.postimg.org/dqcqzyyyj/The_Game_1997_720p_BRRip_HEVC_x265_Dual_Audio.jpg[/img]\n\n[b]Use a reputed media player that can play H.265 (HEVC : High Efficiency Video Coding) Video support.\nMedia Player Classic - Home Cinema and MPC-BE are recommended!.. VLC is OKay, but MPC variants are preferred.\nVLC and players like latest GOM, KMP/PotP with LAV can play HEVC.\n\nAnd also use latest K-Lite Codec Pack.\n\nIn Mobile, Android, Tabs, use a media player like VLC Player, MX Player... that can play H.265 :]\nFor more info, read the How_to_Play_ file inside the torrent.\n\n\nBe aware that all HEVC rips will not play on any stand-alone device. You can only watch this on a computer or on devices which have HEVC support.\nBe sure that you have the latest versions of VLC or Media Player Classic or SMPlayer. Earlier versions may not work[/b]\n\n\n\n[/center]","torrent":{"xt":"urn:btih:cb478ab17b62ea7e5265639f9f2a5f813bc27cae","amp;dn":"The+Game+%281997%29+720p+BRRip+HEVC+x265+%5BDual-Audio%5D%5BEnglish+5.1%2BHi","amp;tr":["udp%3A%2F%2Ftracker.openbittorrent.com%3A80","udp%3A%2F%2Fopen.demonii.com%3A1337","udp%3A%2F%2Ftracker.coppersurfer.tk%3A6969","udp%3A%2F%2Fexodus.desync.com%3A6969"],"infoHash":"cb478ab17b62ea7e5265639f9f2a5f813bc27cae","infoHashBuffer":{"type":"Buffer","data":[203,71,138,177,123,98,234,126,82,101,99,159,159,42,95,129,59,194,124,174]},"announce":[],"urlList":[]}}